<?xml version="1.0" encoding="UTF-8" standalone="no"?>
<!-- Created with Inkscape (http://www.inkscape.org/) -->

<svg
   xmlns:dc="http://purl.org/dc/elements/1.1/"
   xmlns:cc="http://creativecommons.org/ns#"
   xmlns:rdf="http://www.w3.org/1999/02/22-rdf-syntax-ns#"
   xmlns:svg="http://www.w3.org/2000/svg"
   xmlns="http://www.w3.org/2000/svg"
   xmlns:sodipodi="http://sodipodi.sourceforge.net/DTD/sodipodi-0.dtd"
   xmlns:inkscape="http://www.inkscape.org/namespaces/inkscape"
   width="127mm"
   height="120mm"
   viewBox="0 0 127 120"
   version="1.1"
   id="svg71"
   inkscape:version="0.92.4 (5da689c313, 2019-01-14)"
   sodipodi:docname="logo.svg">
  <defs
     id="defs65" />
  <sodipodi:namedview
     id="base"
     pagecolor="#ffffff"
     bordercolor="#666666"
     borderopacity="1.0"
     inkscape:pageopacity="0.0"
     inkscape:pageshadow="2"
     inkscape:zoom="0.35"
     inkscape:cx="400"
     inkscape:cy="560"
     inkscape:document-units="mm"
     inkscape:current-layer="layer1"
     showgrid="false"
     inkscape:window-width="3840"
     inkscape:window-height="2055"
     inkscape:window-x="-13"
     inkscape:window-y="-13"
     inkscape:window-maximized="1" />
  <metadata
     id="metadata68">
    <rdf:RDF>
      <cc:Work
         rdf:about="">
        <dc:format>image/svg+xml</dc:format>
        <dc:type
           rdf:resource="http://purl.org/dc/dcmitype/StillImage" />
        <dc:title></dc:title>
      </cc:Work>
    </rdf:RDF>
  </metadata>
  <g
     inkscape:label="Layer 1"
     inkscape:groupmode="layer"
     id="layer1"
     transform="translate(0,-177)">
    <g
       transform="matrix(1.0023678,0,0,1.0335917,-20.54854,-96.178292)"
       id="g3755">
      <path
         inkscape:connector-curvature="0"
         class="st0"
         d="m 56.6,377.3 -0.5,-0.2 -35.5,-50.3 -0.1,-0.6 25.7,-55.9 0.5,-0.3 61.2,-5.7 0.5,0.2 35.5,50.3 0.1,0.6 -25.7,55.9 -0.5,0.3 z m -34.8,-50.9 35.1,49.7 60.5,-5.6 25.4,-55.3 -35.1,-49.7 -60.5,5.6 z m 96,44.6 z"
         id="path3715"
         style="fill:#ffffff" />
      <path
         inkscape:connector-curvature="0"
         class="st0"
         d="M 56.4,377.2 46.6,326 v -55.9 l 47.9,14.1 49.6,30.9 -36.9,32.8 z M 47.1,270.9 V 326 l 9.7,50.3 50,-28.9 36.2,-32.2 -48.9,-30.4 z"
         id="path3717"
         style="fill:#ffffff" />
      <path
         inkscape:connector-curvature="0"
         class="st0"
         d="m 97,284.8 c 0,1 -0.8,1.8 -1.8,1.8 -1,0 -1.8,-0.8 -1.8,-1.8 0,-1 0.8,-1.8 1.8,-1.8 1,0 1.8,0.8 1.8,1.8"
         id="path3719"
         style="fill:#ffffff" />
      <path
         inkscape:connector-curvature="0"
         class="st0"
         d="m 95.2,288.4 c -2,0 -3.7,-1.6 -3.7,-3.7 0,-2 1.6,-3.7 3.7,-3.7 2,0 3.7,1.6 3.7,3.7 -0.1,2.1 -1.7,3.7 -3.7,3.7 m 0,-3.7 -0.1,0.1 0.1,0.1 z"
         id="path3721"
         style="fill:#ffffff" />
      <path
         inkscape:connector-curvature="0"
         class="st0"
         d="m 108.9,347.5 c 0,1 -0.8,1.8 -1.8,1.8 -1,0 -1.8,-0.8 -1.8,-1.8 0,-1 0.8,-1.8 1.8,-1.8 1,0 1.8,0.8 1.8,1.8"
         id="path3723"
         style="fill:#ffffff" />
      <path
         inkscape:connector-curvature="0"
         class="st0"
         d="m 107.1,351.2 c -2,0 -3.7,-1.6 -3.7,-3.7 0,-2.1 1.6,-3.7 3.7,-3.7 2,0 3.7,1.6 3.7,3.7 0,2.1 -1.7,3.7 -3.7,3.7 m 0,-3.8 -0.1,0.1 0.1,0.1 z"
         id="path3725"
         style="fill:#ffffff" />
      <path
         inkscape:connector-curvature="0"
         class="st0"
         d="m 58.8,376.7 c 0,1 -0.8,1.8 -1.8,1.8 -1,0 -1.8,-0.8 -1.8,-1.8 0,-1 0.8,-1.8 1.8,-1.8 1,0 1.8,0.8 1.8,1.8"
         id="path3727"
         style="fill:#ffffff" />
      <path
         inkscape:connector-curvature="0"
         class="st0"
         d="m 57,380.4 c -2,0 -3.7,-1.6 -3.7,-3.7 0,-2 1.6,-3.7 3.7,-3.7 2,0 3.7,1.6 3.7,3.7 0,2 -1.6,3.7 -3.7,3.7 m 0,-3.8 -0.1,0.1 0.1,0.1 z"
         id="path3729"
         style="fill:#ffffff" />
      <path
         inkscape:connector-curvature="0"
         class="st0"
         d="m 48.6,326.6 c 0,1 -0.8,1.8 -1.8,1.8 -1,0 -1.8,-0.8 -1.8,-1.8 0,-1 0.8,-1.8 1.8,-1.8 1,0 1.8,0.8 1.8,1.8"
         id="path3731"
         style="fill:#ffffff" />
      <path
         inkscape:connector-curvature="0"
         class="st0"
         d="m 46.8,330.2 c -2,0 -3.7,-1.6 -3.7,-3.7 0,-2 1.6,-3.7 3.7,-3.7 2,0 3.7,1.6 3.7,3.7 0,2.1 -1.7,3.7 -3.7,3.7 m 0,-3.7 -0.1,0.1 0.1,0.1 z"
         id="path3733"
         style="fill:#ffffff" />
      <path
         inkscape:connector-curvature="0"
         class="st0"
         d="m 145.3,315.2 c 0,1 -0.8,1.8 -1.8,1.8 -1,0 -1.8,-0.8 -1.8,-1.8 0,-1 0.8,-1.8 1.8,-1.8 1,0 1.8,0.8 1.8,1.8"
         id="path3735"
         style="fill:#ffffff" />
      <path
         inkscape:connector-curvature="0"
         class="st0"
         d="m 143.5,318.9 c -2,0 -3.7,-1.6 -3.7,-3.7 0,-2 1.6,-3.7 3.7,-3.7 2,0 3.7,1.6 3.7,3.7 0,2 -1.7,3.7 -3.7,3.7 m 0,-3.8 -0.1,0.1 0.1,0.1 z"
         id="path3737"
         style="fill:#ffffff" />
      <path
         inkscape:connector-curvature="0"
         class="st0"
         d="m 48.6,270.5 c 0,1 -0.8,1.8 -1.8,1.8 -1,0 -1.8,-0.8 -1.8,-1.8 0,-1 0.8,-1.8 1.8,-1.8 1,0 1.8,0.8 1.8,1.8"
         id="path3739"
         style="fill:#ffffff" />
      <path
         inkscape:connector-curvature="0"
         class="st0"
         d="m 46.8,274.2 c -2,0 -3.7,-1.6 -3.7,-3.7 0,-2 1.6,-3.7 3.7,-3.7 2,0 3.7,1.6 3.7,3.7 0,2 -1.7,3.7 -3.7,3.7 m 0,-3.8 -0.1,0.1 0.1,0.1 z"
         id="path3741"
         style="fill:#ffffff" />
      <path
         inkscape:connector-curvature="0"
         class="st0"
         d="m 117.8,371.6 h -0.2 L 71,355.1 20.8,327 l -0.3,-0.4 0.2,-0.5 37.7,-34.6 49.3,-27.1 h 0.5 l 0.3,0.4 11,48.6 -1.2,57.8 -0.3,0.5 z m -95.7,-45.3 49.3,27.7 45.8,16.2 1.2,-56.8 -10.9,-47.7 -48.5,26.7 z"
         id="path3743"
         style="fill:#ffffff" />
      <path
         inkscape:connector-curvature="0"
         class="st0"
         d="m 107.3,347.7 -0.2,-0.1 -60.5,-21 0.2,-0.2 48.5,-42 z M 47.1,326.5 106.9,347.3 95.1,285 Z"
         id="path3745"
         style="fill:#ffffff" />
      <path
         inkscape:connector-curvature="0"
         class="st0"
         d="M 70.8,355.7 58,291 l 62.2,22.2 z m -11.2,-62.9 11.9,60.7 46.4,-39.8 z"
         id="path3747"
         style="fill:#ffffff" />
      <rect
         x="52.200001"
         y="268.89999"
         transform="matrix(0.8718,-0.4898,0.4898,0.8718,-130.9685,61.9204)"
         class="st0"
         width="1.2"
         height="24.5"
         id="rect3749"
         style="fill:#ffffff" />
      <rect
         x="51"
         y="365"
         transform="matrix(0.5371,-0.8435,0.8435,0.5371,-278.7512,223.3139)"
         class="st0"
         width="26.200001"
         height="1.2"
         id="rect3751"
         style="fill:#ffffff" />
      <polygon
         class="st0"
         points="119.1,312.8 143.6,314.6 143.5,315.8 119,314 "
         id="polygon3753"
         style="fill:#ffffff" />
    </g>
  </g>
</svg>
