<svg xmlns="http://www.w3.org/2000/svg" viewBox="0 0 304 112" width="304" height="112"><g fill="#006BB6"><path d="M140.9 42c-12.1 6-20.5 18.5-20.5 18.5.9 2.4 1.4 4.4 1.4 4.4.6-.3 10.4-3 10.4-3 6.1-10.2 16.4-13.6 16.4-13.6-5.3-3.6-6-15.5-8.3-16.5C119 18.8 104 20.2 104 20.2c1.8 3.8 3.6 8.4 3.6 8.4 23.6 4.3 33.3 13.4 33.3 13.4M46.6 63.3c0-.8-.5-1.3-1.6-1.3h-3.8l-3.8-.1c-.6 0-2 0-2 1.3 0 1.1.9 1.1 1.5 1.2h.5c.9.1 1.6.4 2 1.3.3.7.3 2.2.3 3v9.8C38.5 77 28 63.5 28 63.5l-.3-.4c-.8-1.1-1-1.2-2.7-1.2h-7.6c-.6 0-1.8 0-1.8 1.2s1.2 1.3 1.8 1.3h.2c1.6.1 1.7 1.3 1.6 3.1v15c0 1.4 0 3.4-.4 4.5-.3.8-.6 1.1-1.5 1.1H17c-.7 0-1.9.1-1.9 1.3 0 .8.6 1.3 1.5 1.3l4.1-.2 4.1.2c1 0 1.7-.5 1.7-1.3 0-1.2-1.3-1.3-1.9-1.3h-.2c-1.1-.1-1.8-.3-2.2-1.4-.3-.9-.3-3.2-.3-4.2V68.8C23.2 70.4 38.5 90 38.5 90l.2.3c.6.8 1.2 1.6 2.3 1.6.6 0 1-.1 1.3-.4.3-.3.3-.8.3-1.2V67.8v-.5c0-1.6.2-2.6 1.5-2.8h.5c.6 0 1.3 0 1.7-.4.2-.2.3-.5.3-.8M62.4 88.9c-3.4 0-5.6-3.2-6.5-5.1-1.2-2.5-1.9-5.5-1.9-8.7 0-4 1.4-11.4 6.9-11.4 6.4 0 8.4 9.3 8.4 13.8 0 3.9-1.5 11.4-6.9 11.4m-1.3-27.6c-4.3 0-8 1.5-10.9 4.5-2.8 2.8-4.5 6.7-4.5 10.6 0 4.4 1.9 8.6 5.1 11.1 2.7 2.2 7.2 3.7 11.1 3.7 8.7 0 15.5-6.6 15.5-15 0-9.6-8.4-14.9-16.3-14.9M100.8 67.2c.5-1.3 1-2.5 2.4-2.7h.4c.6 0 1.7-.1 1.7-1.1 0-.4-.2-1.3-1.6-1.3l-3.7.1-3.7-.1c-.5 0-1.7 0-1.7 1.2s1.1 1.2 1.7 1.2h.5c.5.1 1.3.3 1.3 1.2 0 .6-.4 1.8-.8 2.7l-4.8 12c-.6-1.5-5.5-13.6-5.5-13.6-.2-.5-.5-1.2-.5-1.6 0-.4.4-.7.7-.7h.5c.8 0 2 0 2-1.3 0-.3-.1-.6-.3-.8-.4-.4-1.1-.4-1.6-.4h-.1l-5 .2-6.1-.2h-.2c-.5 0-1.1 0-1.5.4-.2.2-.3.5-.3.8 0 1.3 1 1.3 1.4 1.4h.1c.7.1 1.1.1 1.4.6.5.6 1.1 2.1 1.3 2.6l9.1 21.6.1.4c.3.9.6 1.5 1.9 1.5 1.1 0 1.4-.6 1.7-1.5l8.9-21.8c-.1 0 .3-.8.3-.8M105.4 79.5zM105.4 79.5l.5-1.2c.1-.2.2-.5.3-.8l.2-.5s1.8-4.5 2.5-6.5c.5 1.4 2.5 6.5 2.5 6.5l.2.5s.7 1.8.7 1.9h.1l-7 .1zm20.1 8.7h-.3c-.7 0-1-.2-1.5-.9-.4-.6-.9-1.7-1-2.2l-8.9-21.7-.2-.5c-.4-1-.6-1.5-2-1.5-1.7 0-2.1.8-2.5 2l-.2.5-5 12.2-2.4 6.2-.4 1.2c-.4 1.2-1 2.6-1.4 3.4-.6 1.1-.9 1.1-2.1 1.3-.6.1-1.5.2-1.5 1.3 0 .6.3 1.3 1.7 1.3l4.1-.1 4.1.1c1.6 0 1.8-.8 1.8-1.3 0-1.2-1.2-1.4-2.1-1.5-1.4-.2-2.4-.3-2.3-1.7.1-.6.3-1.4.5-1.8l.1-.4.1-.2c.3-.9.5-1.5 1.7-1.5h6.1c1.7-.1 1.7.8 2.1 1.7l.1.3.7 1.7c.2.4.4 1.1.4 1.6 0 .4-.3.5-1.2.6-.8.1-1.8.2-1.8 1.3 0 .9.6 1.3 1.7 1.3l6.3-.2 5.3.2c.5 0 1.8 0 1.8-1.3-.1-1.4-1.2-1.4-1.8-1.4M266.9 79.5 266.9 79.5l.5-1.2c.1-.2.2-.5.3-.8l.2-.5s1.8-4.5 2.5-6.5c.5 1.4 2.5 6.5 2.5 6.5l.2.5s.7 1.8.7 1.9h.1l-7 .1zm20.1 8.7h-.3c-.7 0-1-.2-1.5-.9-.4-.6-.9-1.7-1-2.2l-8.9-21.7-.2-.5c-.4-1-.6-1.5-2-1.5-1.7 0-2.1.8-2.5 2l-.2.5-5 12.2-2.4 6.2-.4 1.2c-.4 1.2-1 2.6-1.4 3.4-.6 1.1-.8 1.2-2 1.4h-.4c-.1 0-.2 0-.4-.1-2.2-.4-2.2-1.1-2.2-3.3V68c0-2.5 0-3 2.4-3.4.6-.1 1.5-.3 1.5-1.3 0-.8-.5-1.2-1.4-1.2l-3.1.1-3.1.1-6.6-.2c-.3 0-1.4 0-1.4 1.2 0 1 1 1.2 1.5 1.2h.2c2.2.4 2.2 1.1 2.2 3.4v16.8c0 2.6 0 3-2.4 3.4-1.2.2-1.5.9-1.5 1.4 0 .6.2 1.2 1.4 1.2l6.2-.2 6.6.2h.6l4.1-.1 4.1.1c1.6 0 1.8-.8 1.8-1.3 0-1.2-1.2-1.4-2.1-1.5-1.4-.2-2.4-.3-2.3-1.7.1-.6.3-1.4.5-1.8l.1-.4.1-.2c.3-.9.5-1.5 1.7-1.5h6.1c1.7-.1 1.7.8 2 1.7l.1.3.6 1.7c.2.4.4 1.1.4 1.6 0 .4-.3.5-1.2.6-.8.1-1.8.2-1.8 1.3 0 .9.6 1.3 1.7 1.3l6.3-.2 5.3.2c.5 0 1.8 0 1.8-1.3.1-1.3-1-1.3-1.6-1.3M147.2 71.8L145 71c-1.8-.6-3.7-1.4-3.7-3.5 0-2.2 2.3-3.6 4.5-3.6 2.1 0 3.6 1.4 4.6 4.6.1.4.4 1.5 1.5 1.5.4 0 .6-.1.8-.3.4-.4.4-1.1.4-1.6v-3.5c0-.7 0-1.5-.9-2-1.4-.8-4.3-1.2-5.8-1.2-5.6 0-11.6 3.6-11.6 9.4 0 4.9 4.9 7 7.8 8.3l.9.4c2.5 1 5.3 2.1 5.3 5.1 0 3.2-3.3 4.4-5.5 4.4-1.2 0-3-.3-4.2-1.5-.9-1-1.2-2-1.6-3.4l-.1-.4c-.2-.8-.5-2.1-1.7-2.1-.3 0-.6.1-.8.3-.5.5-.5 1.5-.5 2.2V87.2c0 1.2 0 2 1.4 2.8 1.9.9 5.3 1.5 7.4 1.5 3.3 0 6-.9 8.2-2.8 2.3-2 3.6-4.7 3.6-7.4.1-6.1-4.1-8.2-7.8-9.5M182.7 82c-.8 0-1.2.7-1.4 1.2-.7 1.3-1.5 2.9-2.7 4-1.3 1.1-2.8 1.6-4.3 1.6-2.8 0-5.3-1.6-7-4.3-1.3-2.2-2.1-5.2-2.1-8.4s.8-6.3 2.3-8.4c1.7-2.4 4.2-3.9 6.8-3.9 3.5 0 4.8 1.9 5.8 3.5.6 1 1.2 1.8 2.1 1.8.7 0 1.2-.5 1.2-1.1l-.2-1.3v-.1l-.3-2.3v-.1c-.2-1.3-.3-1.6-1.6-2-2-.6-4.5-1-6.6-1-4.6 0-9.2 1.4-12.3 3.8-3.6 2.8-5.7 6.9-5.7 11.4 0 4.3 2.2 8.7 5.6 11.4 2.8 2.1 7 3.4 11.6 3.4 2.3 0 5.7-.4 8.5-2.1 1.4-.9 1.5-1.6 1.5-2.9V86l.1-1.9v-.5c0-.4-.1-.9-.4-1.3-.2-.1-.5-.3-.9-.3M242.7 63.3l-.5 4.8c-.1.7-.2 1.9-1.3 1.9-.5 0-1.2-.3-1.7-1.6-1.2-3.1-1.6-3.8-5.1-3.8-.8 0-.8 0-.8.9V84.8c0 2.3 0 3 2.2 3.3.5.1 1.7.3 1.7 1.4 0 .4-.1 1.2-1.4 1.2l-6.6-.2-6.2.2c-1.2 0-1.4-.7-1.4-1.2s.3-1.2 1.5-1.4c2.3-.4 2.4-.8 2.4-3.1V65.5c0-.3 0-.7-.1-.7-.1-.1-.5-.1-.8-.1-2.7 0-3.8 1-5.4 3.4-.7 1.2-1.4 1.7-2.1 1.7-.7 0-1.1-.5-1.1-1.4l.2-.9.1-.2 1.1-4.5s.3-1 1.5-1c2.7-.1 6.1.5 22.6.1 0 .1 1.3.1 1.2 1.4M200.8 61.1c-1.6-1.6-5.7-5.2-15.4-10.3-5.3-2.8-12.1-6-20.8-9.4 0 0 5.3-7 26.1-9.3 0 0 0-6-.5-7.9 0 0-13.1-1.5-29.5 9.4 0 0-.5 4.7.8 7.9 0 0 1.7 4.2-.3 8 0 0 11.9 3 23 10.5 0 0 7.2.8 12.4 1.5-.6.1-.9.2-.9.2-2.7.6-5 2-7 4-2.8 2.8-4.5 6.7-4.5 10.6 0 4.4 1.9 8.6 5.1 11.1 2.7 2.2 7.2 3.7 11.1 3.7 8.7 0 15.5-6.6 15.5-15 0-9.4-7.6-14.5-15.1-15zm.1 27.5c-3.4 0-5.6-3.2-6.5-5.1-1.2-2.5-1.9-5.5-1.9-8.7 0-4 1.4-11.5 6.9-11.5 6.4 0 8.4 9.3 8.4 13.8 0 4-1.5 11.5-6.9 11.5z"/></g><path fill="#F7CF64" d="M140.2 31.2c1 5.8 2.9 10.5 2.9 10.5 2.8 6.8 9.2 8.9 9.2 8.9 3.5 1.5 4.1 2.2 4.1 2.2 9.8-3.6 5.7-12.1 5.7-12.1-1.3-3.9-1.2-6.9-1.2-7.8 0 0 0-.6-.3-.5l-1 .2c-.5.1-.9.1-1 .1-2 .1-4-.5-4-.5-4.2-1.2-6.7-1.6-6.7-1.6-.8-.1-1.6-.1-2.4-.1-3.2 0-5.3.7-5.3.7"/><path fill="#ED1C2E" d="M152.8 47s-1.5-1.7.8-1.2h.2c.2 0 .4 0 .4.2.2.5.4.8.8 1 0 0 .4.2 1.4.2 0 0-.1.6-.7 1 0 0-.5.2-.4 1 0 0-.4.1-.9-.2 0 0-.7-.2-.7.4 0 0 .6-.2.8.1 0 0-.8.2-.4.9 0 0 .6.2 1.2-.7 0 0 .1.1.1.2 0 0-.8.2.5 1.2 0 0-.3-1 .2-1 0 0 .5.1.7.7 0 0 .1-.7.4-.8 0 0-.9-.9.1-.7 0 0 .2-.1-.2-.4 0 0 .4-.2.7 0 0 0-.1-.2-.1-.3h.6s-.9-.4.3-.9c0 0-.6-.3 0-.4 0 0 .3 0 .2-.7 0 0-1.8 1.1-2.2-1.1 0 0 1.1-.4 1.5.7 0 0 .2-.2-.1-.8 0 0 .8-.4.3-2.5 0 0-.1-.2.5-.4 0 0 .9-.6-.7-1.1 0 0 .7.8-.1 1 0 0-1.9-2.3-1-4.5 0 0 .4-1.2.2-2.3-.2-.9-1.5-2.1-2.9-1.3 0 0 1.2.3 1.1 1.3-.1.6-.8 1.4-.2 3.1.3.9.8 1.9 1.6 2.7 0 0 .5.6.7 1.1 0 0-.4-.2-.8-.3 0 0-1.1-.1.1 1.1-.1-.1-.7-.8.9-.4 0 0 1 1.9-.1 2.1 0 0-.7.1-1.3-.6 0 0-1-1.3-1.4-1.7 0 0-1.4-1.2-1.5-3.1 0 0-.1-.7.5-.8v-.1c-1.2-1.3-.4-2-.4-2 .2 0 .3-.1.3-.1s-.7-.8-.7-.9c0-.1.3-.3.3-.3l-.4-.4c-.3-.1-.4-1.2-.4-1.2l-.3.1c-.3-.5-.8-.9-.8-.9 0 .5-1 .6-1 .6-.5-.3-1.1 0-1.1 0-.6-.1 0 .6 0 .6.1.4.9.7.9.7l.7.4c-.1.1-.4.1-.4.1-.6-.4-1.2-.3-1.2-.3-.5.3-.6-.3-.6-.3-.4.7.9.7.9.7.9 0 1.2.4 1.2.4-.8-.1-.8.3-.8.3-.6-.1-.7.4-.7.4-.4.1-.2.7-.2.7.8.9.1.7-.6.5l-.4-.1c.1-.7-.6-2-.6-2-1-1.6-.6-1.9-.6-1.9.7-.8-.2-1-.2-1 .2.4-.1.5-.1.5-.6-.9-1.1-.8-1.1-.8.7.7.4.9.4.9-1-.9-1.4-.5-1.4-.5.5.1.5.6.5.6.2.4.5.3.5.3.5.4 0 .4 0 .4-.1-.2-.3 0-.3 0h-.5c.1.7 1.2.7 1.2.6.9 1.3.2 1.8.2 1.8.7 1.3 0 1.3 0 1.3.4 0 .6.4.6.4.1.4-.5.4-.5.4.4.4 1.2.4 1.2.4.4.4.7.5.7.5.3.2.7.3 1.2.3 0 .1 0 .1.1.2 0 0-1.3 1-2.7.9 0 0-.2-.2-.4-.5 0 0-.5-.4-.6 0 0 0 .6.2.5.6l-.8-.2s.1.2.2.3c0 0 .1.4.9.2 0 0 .1.2 0 .2 0 0-.4.1-.3.6 0 0 .4 0 .5-.1 0 0 .2-.1.1-.3h.4s.6-.1.3.5c0 0 .2.1.5-.5 0 0 .4-.2.5.3 0 0 .2-.5.7-.4 0 0 0 .1-.1.3 0 0 .3.2.4-.2 0 0 .5-.2.5.2 0 0 .2-.6.2-.7 0 0 .8.3.7.6 0 0 .1.1.4 0 0 0 .9.9 2 1.8-.6 0-.9 0-1.1.1l-.3-.1s-.7-.2-.9.1c0 0-.6.3-.3 1.3 0 0-.2.7-.6.3 0 0-.6-.4-1.2-.5 0 0-.8-.3-1.1-.8 0 0-.4-.6-1 0 0 0 .4.1.6.4 0 0 .3.2.5.3 0 0 .1.1.1.2 0 0-1.3-.2-.9.7 0 0 .2-.3.6.1 0 0 .4.1.5-.2 0 0 .5.3-.1.8 0 0 .4.3.8-.4 0 0 .5.1.8.9 0 0 .6-.8.9.1 0 0 .2-.5.4.3 0 0 .4.3.7 0 .2-.4.3-.1 1-.3"/></svg>